<svg xmlns="http://www.w3.org/2000/svg" width="1480" height="2100" viewBox="0 0 1480 2100">
  <title>WEDDING PASSPORT clean-room study — Island Field Guide v2 fixed art</title>
  <desc>Fixed-art support only. No authoritative copy. Not production.</desc>
  <rect width="1480" height="2100" fill="#F7F1E7"/>
  <path d="M1010 -40C1180 170 1288 414 1328 694C1362 934 1345 1128 1282 1310C1220 1486 1116 1630 978 1744L1480 2100V-40Z" fill="#173E5D"/>
  <path d="M1192 -20C1306 168 1375 360 1392 548C1404 680 1390 790 1344 902L1480 960V-20Z" fill="#E56A4E"/>
  <path d="M1328 -20C1392 102 1430 228 1440 354C1448 446 1442 530 1426 610L1480 632V-20Z" fill="#F0B742"/>
  <path d="M-130 1164C124 960 344 900 584 934C824 968 1035 1098 1288 1070C1378 1060 1454 1033 1520 996" fill="none" stroke="#2C8E93" stroke-width="34" stroke-linecap="round"/>
  <path d="M-120 1300C146 1128 372 1092 604 1130C836 1168 1034 1274 1296 1258C1380 1253 1450 1234 1516 1202" fill="none" stroke="#F0B742" stroke-width="16" stroke-linecap="round"/>
  <path d="M-100 1434C156 1304 386 1290 616 1330C844 1368 1045 1460 1306 1454C1380 1452 1450 1438 1514 1414" fill="none" stroke="#E56A4E" stroke-width="10" stroke-linecap="round"/>
</svg>
